<svg xmlns="http://www.w3.org/2000/svg" viewBox="0 0 300 120"><defs><style>.cls-1{fill:#222;}.cls-2{fill:#ff0211;}.cls-3{fill:#4dc9ff;}.cls-4{fill:#fff;}</style></defs><title>merpay_logo</title><g id="レイヤー_1" data-name="レイヤー 1"><polygon class="cls-1" points="287.42 45.47 275.06 76.08 262.55 45.47 250.15 45.47 269.49 88.75 259.31 112.58 270 112.58 298.92 45.47 287.42 45.47"/><path class="cls-1" d="M170,22.6h-15.2v0h-11V93.32h11V65.86H170c14.45,0,23.08-9,23.08-21.49C193.12,31.7,184.49,22.6,170,22.6Zm1.86,32.88H155V33H171.9c7.43,0,10.07,6.85,10.07,11.4S179.32,55.48,171.9,55.48Z"/><path class="cls-1" d="M220.75,44.84c-14.25,0-24.61,10.26-24.61,24.39,0,14.37,9.7,24.4,23.58,24.4,5.7,0,11.84-3.38,14.07-7.6v7.3h11.13V69.23C244.92,54.41,235.58,44.84,220.75,44.84Zm-.1,39c-8.18,0-13.28-5.6-13.28-14.62,0-8.33,5.72-14.61,13.28-14.61,8.06,0,13,5.74,13,14.61C233.69,76.32,229.27,83.85,220.65,83.85Z"/><path class="cls-2" d="M61.58,119,108,95.74a9.66,9.66,0,0,0,5.35-8.64V32.9A9.66,9.66,0,0,0,108,24.26L61.58,1a9.79,9.79,0,0,0-8.73,0L6.44,24.26A9.66,9.66,0,0,0,1.09,32.9V87.1a9.66,9.66,0,0,0,5.35,8.64L52.85,119A9.79,9.79,0,0,0,61.58,119Z"/><circle class="cls-3" cx="95.92" cy="33.55" r="25.16"/><path class="cls-4" d="M16.53,79.52l-4.91-2.47V62.5c0-4.26,2.4-8.51,7.35-8,4.63.5,8.2,4.61,9.31,7.3a6.24,6.24,0,0,1,5.6-1.52c2.54.34,12.07,4,12.07,16.89V94.35l-5.39-2.71V75.57c0-4.71-2.88-8.65-6.76-9.1-1.6-.19-3,1.1-3,3.87s0,16.34,0,16.34l-4.95-2.49V69c0-6.71-4.33-8.83-6.23-9-1.07-.12-3.06.52-3.06,4Z"/></g></svg>